PathFileType	4	(X/Y/Z)	s03c0301.trc
DataRate	CameraRate	NumFrames	NumMarkers	Units	OrigDataRate	OrigDataStartFrame	OrigNumFrames
200	200	6	52	mm	200	1500	2000
Frame#	Time	racr			lacr			c7			jug			rlel			rdr			llel			ldr			s2			lic			ric			lasi			rasi			rpsi			lpsi			rgt			lgt			rth1			rth2			rth3			rth4			rlfc			rmfc			rsh1			rsh2			rsh3			rsh4			rlmal			rmmal			rcal			rtoe			rmt5			rmt1			lth1			lth2			lth4			lth3			llfc			lmfc			lsh1			lsh2			lsh3			lsh4			llmal			lmmal			lcal			ltoe			lmt1			lmt5			SBIKE			LBIKE			RBIKE			
		X1	Y1	Z1	X2	Y2	Z2	X3	Y3	Z3	X4	Y4	Z4	X5	Y5	Z5	X6	Y6	Z6	X7	Y7	Z7	X8	Y8	Z8	X9	Y9	Z9	X10	Y10	Z10	X11	Y11	Z11	X12	Y12	Z12	X13	Y13	Z13	X14	Y14	Z14	X15	Y15	Z15	X16	Y16	Z16	X17	Y17	Z17	X18	Y18	Z18	X19	Y19	Z19	X20	Y20	Z20	X21	Y21	Z21	X22	Y22	Z22	X23	Y23	Z23	X24	Y24	Z24	X25	Y25	Z25	X26	Y26	Z26	X27	Y27	Z27	X28	Y28	Z28	X29	Y29	Z29	X30	Y30	Z30	X31	Y31	Z31	X32	Y32	Z32	X33	Y33	Z33	X34	Y34	Z34	X35	Y35	Z35	X36	Y36	Z36	X37	Y37	Z37	X38	Y38	Z38	X39	Y39	Z39	X40	Y40	Z40	X41	Y41	Z41	X42	Y42	Z42	X43	Y43	Z43	X44	Y44	Z44	X45	Y45	Z45	X46	Y46	Z46	X47	Y47	Z47	X48	Y48	Z48	X49	Y49	Z49	X50	Y50	Z50	X51	Y51	Z51	X52	Y52	Z52	
1500	7.5000	702.708528	1404.010982	-98.919833	644.238134	1440.602214	-406.655478	624.595152	1510.025806	-236.556255	607.295637	1332.199805	-244.695601	614.267371	1163.144853	47.441386	742.371677	932.078682	-41.962333	567.498438	1177.974374	-504.055628	725.946622	936.114003	-422.873599	67.559491	1309.982790	-169.183870	216.903979	1344.267430	-369.992437	263.597692	1286.018639	-13.602515	236.158830	1264.995610	-338.383762	272.423697	1222.839348	-69.881077	109.669775	1348.491355	-119.296726	102.350627	1361.240475	-201.334578	173.655989	1180.274454	-2.752783	169.395962	1262.080011	-394.563331	207.507847	1027.839434	2.495698	254.848175	952.677466	-3.418556	260.974719	867.819551	-14.643647	288.118834	964.987339	-13.937834	283.376796	745.168987	-50.656714	283.985161	732.444671	-168.450667	211.325731	596.114676	-24.406313	198.337736	509.068510	-39.349840	143.484525	439.694408	-41.140029	225.757840	499.901346	-64.322732	81.827161	325.358693	-63.732083	108.901341	328.187549	-143.293370	12.477147	319.430536	-98.166415	271.999832	148.802907	-117.725567	165.316000	195.244132	-42.186877	192.175753	200.659297	-156.968197	270.075352	1154.272464	-433.903742	348.120251	1119.075227	-448.187098	371.851560	1144.996098	-437.062504	398.987335	1046.357168	-459.320665	511.480532	964.951299	-455.614741	526.874141	946.893740	-326.718579	408.913948	822.317259	-467.305047	382.515660	742.463972	-446.750372	314.888828	682.951594	-437.544735	410.436281	726.763972	-425.061594	243.420109	577.346163	-415.379622	279.945375	589.251944	-326.768263	168.884518	544.311745	-367.177892	469.725075	474.669895	-359.850480	375.300425	488.427250	-318.071637	350.260698	473.807556	-434.064518	-214.562893	945.195663	-232.387699	-9.411128	80.975958	-433.430288	-9.602254	81.103312	-32.917316	
1501	7.5050	703.177966	1404.310832	-99.298760	644.802837	1440.179331	-406.948210	625.560385	1510.248650	-237.044740	607.364257	1332.488944	-244.685614	614.670266	1163.488470	46.782522	741.367780	931.402111	-42.859735	565.746470	1177.878655	-503.352142	725.854430	936.489336	-422.709517	67.619457	1312.806809	-171.038056	218.433600	1345.472550	-371.269775	262.456314	1289.225728	-13.835548	236.553693	1266.730414	-338.952705	271.347636	1225.675294	-69.302605	110.348482	1351.395287	-122.439425	102.950639	1363.986684	-203.772693	172.705940	1184.109724	-3.064983	169.902690	1262.443481	-395.276174	209.644030	1031.106434	2.323622	258.488335	956.894894	-3.608334	266.345650	872.171875	-14.287032	291.424538	969.711068	-14.165754	289.890731	749.306119	-48.702280	290.602543	736.035334	-166.523059	213.302420	601.703113	-23.075829	198.271173	515.054327	-38.001941	141.228861	447.320442	-40.603357	225.261574	505.373192	-62.986043	76.809372	334.453939	-64.140928	104.789590	336.843310	-143.489871	7.521923	329.492277	-99.284347	263.351812	153.367339	-117.339445	157.503598	202.341703	-42.346505	184.842595	206.669164	-157.301653	269.258267	1152.846174	-433.730016	346.896387	1116.663373	-447.415910	370.888294	1142.550092	-436.640467	396.858717	1043.171631	-457.186820	508.971301	960.866845	-453.038697	524.131697	943.338206	-324.320362	409.032782	816.275028	-465.829092	384.244251	735.891831	-445.707791	317.623081	675.221642	-437.308429	412.708311	720.754067	-424.422442	248.555314	567.735103	-415.232050	284.543216	580.213724	-326.360963	174.514832	532.788814	-367.327785	477.101686	470.752673	-359.968905	382.311398	482.095281	-318.315919	357.320044	467.280023	-435.259874	-214.476514	945.239281	-232.494857	-9.427750	80.973856	-433.434817	-9.600169	81.119159	-32.900125	
1502	7.5100	703.506448	1404.705715	-99.669409	645.486215	1439.732749	-407.179126	626.473319	1510.520939	-237.516306	607.422059	1332.830274	-244.682694	615.068830	1163.897627	46.057966	741.435302	931.338991	-42.885149	564.250015	1177.743609	-502.587335	725.717942	936.747845	-422.297415	67.834918	1315.506224	-173.048686	219.970330	1346.366391	-372.514913	261.178730	1292.538631	-14.023109	237.031148	1267.336740	-339.513613	270.521056	1228.629157	-68.548352	110.164317	1354.221429	-124.094827	103.584039	1366.312747	-206.528965	171.802269	1187.918706	-3.478883	170.416641	1262.336591	-395.943918	212.109516	1034.543539	2.111402	262.399773	961.421829	-3.501617	271.698513	876.844317	-13.755563	294.945414	974.687922	-14.031158	296.838251	753.612633	-46.915046	297.673588	739.760362	-164.648089	215.643071	607.660580	-21.655597	198.163942	521.609106	-37.188210	139.613245	455.274053	-40.058455	225.364840	511.066035	-61.803124	72.521467	343.907127	-64.288940	101.325559	345.805966	-143.516705	3.250603	340.076520	-100.020040	255.232391	158.622031	-117.049877	150.297392	209.668695	-42.559408	177.998941	213.293611	-157.508546	268.378391	1150.960372	-433.529475	345.551203	1113.675790	-446.714886	369.826562	1139.347409	-436.325807	394.625474	1039.431912	-455.355202	506.146226	956.130480	-450.373646	521.195522	938.826889	-322.215068	409.069070	809.726340	-464.487896	385.957362	728.701340	-444.609361	320.772391	666.306539	-436.058189	414.661573	714.007793	-423.155319	253.733834	557.596711	-415.179253	289.117982	570.310811	-325.914593	179.892478	521.063679	-367.629456	483.960242	465.679858	-360.004986	389.011953	475.164834	-318.515886	364.368456	459.729718	-435.550145	-214.398429	945.284117	-232.650505	-9.405225	80.962387	-433.464220	-9.605698	81.160713	-32.915594	
1503	7.5150	703.742349	1405.016586	-100.043733	646.188108	1439.339717	-407.463182	627.390765	1510.848852	-237.945068	607.354303	1333.251298	-244.746411	615.352912	1164.187391	45.396472	741.463064	931.297826	-42.896713	562.994558	1177.559586	-501.841881	725.632026	936.943910	-421.821738	68.109119	1318.048785	-175.331203	221.598788	1346.915301	-373.979478	259.892197	1295.803140	-14.281969	237.437410	1267.814787	-340.232553	269.464000	1230.963737	-67.876697	110.049094	1356.832796	-125.981922	104.078218	1368.564545	-209.179179	171.052204	1191.645770	-3.942197	170.947034	1261.827185	-396.586134	214.736834	1038.085019	2.060060	266.654625	966.031743	-3.494926	277.733280	881.634341	-12.995913	299.048560	979.754174	-14.396267	304.050523	758.159287	-45.003847	305.095887	743.571500	-162.750524	218.502671	613.713199	-20.323825	198.755941	528.238413	-36.141366	138.525449	463.498630	-39.413295	225.794947	517.052661	-60.525367	68.865247	353.750706	-64.026779	97.884926	355.312275	-143.168967	-0.334970	351.140772	-100.447253	247.538924	164.056695	-116.817059	143.536883	217.459150	-42.544820	171.441813	220.339078	-157.703505	267.475825	1148.611727	-433.258499	344.108398	1110.280090	-446.291153	368.771634	1135.597336	-435.982608	392.180659	1035.095078	-453.468602	503.041615	950.779723	-447.686294	518.004805	933.891291	-319.976946	409.088359	802.481287	-462.843819	387.656842	720.904804	-443.314191	323.763929	657.374532	-435.721423	416.587622	706.851351	-421.761437	258.861158	547.106433	-415.425509	293.594578	560.269389	-325.422701	185.352345	509.088266	-367.795119	490.595998	459.976492	-360.184972	395.386128	467.669171	-318.671825	371.217148	451.298235	-435.252777	-214.311948	945.306737	-232.749751	-9.393323	80.973773	-433.465844	-9.579063	81.175225	-32.922514	
1504	7.5200	703.817858	1405.400195	-100.291829	647.047411	1438.831762	-407.610262	628.274622	1511.189909	-238.282681	607.265770	1333.689818	-244.708641	615.560372	1164.471409	44.765941	741.499924	931.242164	-42.880421	561.994820	1177.338899	-501.022033	725.676741	937.049480	-421.431618	68.395138	1320.149224	-177.916087	223.168217	1347.138309	-375.231991	258.524128	1299.074712	-14.559014	237.603829	1268.837194	-340.913158	267.808230	1232.669763	-66.629779	109.176653	1359.872643	-127.065431	102.312330	1372.628341	-207.020588	170.400024	1195.254997	-4.554945	171.474841	1260.857363	-397.288208	217.635332	1041.730776	1.948523	271.168394	970.606219	-3.733832	283.893535	886.571862	-12.191422	303.174257	985.089725	-14.446988	311.406935	762.804302	-43.112378	312.828534	747.560530	-160.960393	221.704137	619.959942	-18.963761	200.149672	535.008388	-34.688044	137.990551	471.889844	-38.678501	226.702604	523.195319	-59.256091	65.790184	363.799868	-63.553960	95.587602	364.482114	-142.823073	-3.364346	362.429590	-100.767997	240.356973	169.822580	-116.572416	137.376824	225.518667	-42.555842	165.737353	227.874668	-157.500162	266.528272	1145.802727	-433.055239	342.645427	1106.326639	-445.532199	367.668026	1131.477254	-435.593136	389.791375	1030.321778	-451.446201	499.655091	944.903436	-444.856829	514.596451	928.758043	-317.500703	409.212945	794.331623	-460.214969	389.369250	712.641478	-441.825532	326.851718	647.648438	-434.874148	418.344230	699.323631	-420.119128	263.771562	536.371640	-415.071537	297.937869	549.727057	-324.954285	190.833652	497.042464	-367.770404	496.964894	453.323223	-359.937774	401.400750	459.655044	-318.767668	377.657051	442.753124	-435.417912	-214.263471	945.377191	-232.787302	-9.378095	80.959562	-433.471460	-9.569245	81.184607	-32.952888	
1505	7.5250	703.809260	1405.799330	-100.408719	648.045236	1438.350202	-407.689445	629.116146	1511.579091	-238.536423	607.203935	1334.176531	-244.658138	615.740542	1164.691098	44.151713	741.540746	931.213614	-42.870424	561.267029	1177.108136	-500.210796	725.751652	937.095940	-421.157393	68.681552	1322.011947	-180.570965	224.809663	1347.066474	-376.650682	257.199399	1302.205389	-14.935772	237.869293	1268.764774	-341.638968	266.715980	1235.333622	-66.239599	109.086907	1362.192694	-129.312558	103.964262	1375.168193	-197.520413	169.942132	1198.830066	-5.196926	172.112159	1259.595434	-398.277852	220.643504	1045.447097	1.950189	275.704438	975.449653	-3.494730	290.289022	891.742255	-11.391995	307.491706	990.464395	-14.273814	318.753821	767.512805	-41.227280	319.833818	752.079357	-160.644127	225.366629	626.345866	-17.536865	201.385547	542.061291	-33.711849	137.969690	480.438667	-37.709116	228.065608	529.476522	-57.819063	63.203394	373.994411	-63.065790	93.010536	374.345766	-142.261296	-5.629427	373.890050	-100.658338	233.548517	175.868973	-116.393224	131.855356	233.912142	-42.347876	160.363156	235.561210	-157.357436	265.652423	1142.625601	-432.815002	341.200193	1101.951564	-444.772370	366.502845	1126.879621	-435.253361	387.321748	1025.251978	-449.406604	496.093736	938.607562	-442.031461	511.073529	923.127259	-315.053422	408.819612	786.374887	-459.374411	391.119807	704.632647	-441.790937	329.851520	637.608231	-433.918080	419.933627	691.448426	-418.294035	268.599129	525.313206	-414.737859	302.076016	539.021449	-324.462586	195.894751	484.942298	-367.787457	502.801945	446.041176	-360.070472	407.021600	451.168306	-318.785466	383.654047	433.825557	-435.440130	-214.052863	945.315011	-233.098080	-9.356105	80.963629	-433.474484	-9.542164	81.208101	-32.951477	
